<svg xmlns="http://www.w3.org/2000/svg" xmlns:xlink="http://www.w3.org/1999/xlink" width="500" zoomAndPan="magnify" viewBox="0 0 375 374.999991" height="500" preserveAspectRatio="xMidYMid meet" version="1.0"><defs><g/><clipPath id="b309e76525"><path d="M 90 92.179688 L 206 92.179688 L 206 222.679688 L 90 222.679688 Z M 90 92.179688 " clip-rule="nonzero"/></clipPath><clipPath id="001ae14ba3"><path d="M 188.394531 139.09375 L 286.644531 139.09375 L 286.644531 222 L 188.394531 222 Z M 188.394531 139.09375 " clip-rule="nonzero"/></clipPath></defs><g clip-path="url(#b309e76525)"><path fill="#ff3131" d="M 203.324219 117.742188 C 199.777344 116.71875 192.730469 114.242188 189.761719 113.046875 C 185.273438 111.242188 186.375 107.753906 184.238281 106.300781 C 182.101562 104.839844 176.195312 102.292969 172.417969 103.257812 C 171.433594 99.171875 170.664062 92.183594 170.664062 92.183594 C 170.664062 92.183594 162.054688 100.953125 162.566406 107.199219 C 157.417969 108.289062 158.074219 124.050781 152.492188 137.640625 C 149.496094 144.9375 100.828125 174.730469 105.644531 206.472656 C 102.691406 206.636719 99.515625 206.691406 96.886719 202.53125 C 92.996094 196.367188 94.042969 185.238281 94.042969 185.238281 C 94.042969 185.238281 88.296875 195.960938 92.382812 205.796875 C 95.574219 213.476562 103.726562 213.972656 105.863281 214.792969 C 102.414062 219.167969 105.097656 220.953125 110.351562 221.632812 C 115.605469 222.3125 143.84375 221.941406 149.425781 221.632812 C 155.007812 221.324219 149.941406 214.664062 145.160156 214.390625 C 140.378906 214.113281 133.667969 213.734375 133.667969 213.734375 C 133.667969 213.734375 148.277344 215.089844 146.984375 203.324219 C 145.863281 193.152344 135.050781 186.972656 134.886719 186.691406 C 135.824219 186.722656 143.535156 191.175781 147.804688 200.699219 C 150.066406 204.90625 168.078125 188.472656 168.078125 188.472656 C 168.078125 188.472656 173.179688 222.015625 176.792969 222.015625 C 180.402344 222.015625 185.605469 222.015625 189.050781 222.015625 C 190.308594 222.015625 191.273438 221.640625 190.046875 218.777344 C 189.605469 217.75 183.058594 217.480469 182.484375 216.105469 C 180.28125 210.824219 181.386719 202.09375 178.328125 190.964844 C 177.671875 185.976562 181.988281 168.101562 184.453125 156.996094 C 186.28125 148.765625 181.214844 131.996094 182.265625 131.164062 C 184.726562 129.214844 192.246094 131.683594 200.4375 128.101562 C 203.9375 126.566406 203.984375 122.207031 204.59375 121.75 C 206.15625 120.601562 204.222656 118 203.324219 117.742188 " fill-opacity="1" fill-rule="nonzero"/></g><g clip-path="url(#001ae14ba3)"><path fill="#000000" d="M 209.730469 176.78125 C 209.730469 176.78125 211.152344 190.121094 212.574219 191.71875 C 213.996094 193.320312 215.421875 213.949219 213.464844 215.726562 C 211.507812 217.503906 209.195312 218.214844 209.019531 219.992188 C 208.839844 221.773438 215.242188 221.417969 215.777344 221.238281 C 216.308594 221.0625 221.820312 200.96875 223.066406 199.898438 C 224.3125 198.832031 222.710938 207.191406 224.132812 209.503906 C 225.554688 211.8125 229.824219 214.304688 229.824219 214.304688 L 229.824219 215.726562 C 229.824219 215.726562 224.84375 214.835938 224.3125 216.082031 C 223.777344 217.328125 223.066406 219.636719 224.667969 219.816406 C 226.265625 219.992188 230.890625 219.992188 230.890625 219.992188 C 230.890625 219.992188 230.710938 221.367188 239.25 221.390625 C 247.785156 221.417969 256.140625 220.171875 256.140625 220.171875 L 272.324219 219.460938 C 272.324219 219.460938 271.078125 220.480469 272.324219 221.390625 C 273.566406 222.304688 285.304688 221.773438 286.015625 219.636719 C 286.726562 217.503906 284.238281 213.414062 276.234375 213.59375 C 268.234375 213.769531 257.742188 216.972656 256.851562 211.992188 C 255.964844 207.011719 259.164062 196.699219 250.984375 184.25 C 242.804688 171.804688 236.046875 176.605469 232.667969 171.980469 C 229.289062 167.359375 227.335938 161.84375 228.402344 156.867188 C 229.46875 151.886719 231.070312 144.0625 228.757812 142.640625 C 226.445312 141.21875 222.886719 147.085938 222.886719 147.085938 C 222.886719 147.085938 215.597656 146.019531 215.242188 146.554688 C 214.886719 147.085938 212.574219 142.417969 212.574219 142.417969 C 212.574219 142.417969 211.863281 146.910156 212.21875 147.621094 C 212.574219 148.332031 209.90625 149.578125 209.730469 150.289062 C 209.550781 151 207.589844 153.308594 209.015625 155.445312 C 210.441406 157.578125 211.332031 159.355469 210.972656 160.777344 C 210.617188 162.203125 210.617188 162.203125 210.617188 162.203125 C 210.617188 162.203125 201.015625 154.199219 197.636719 151 C 194.257812 147.796875 195.324219 147.265625 194.082031 144.0625 C 192.835938 140.863281 190.878906 139.085938 189.636719 140.152344 C 188.390625 141.21875 189.28125 143.351562 189.636719 143.707031 C 189.992188 144.0625 189.992188 144.773438 189.8125 145.664062 C 189.636719 146.554688 189.636719 147.976562 191.058594 148.332031 C 192.480469 148.6875 192.304688 153.488281 193.546875 154.910156 C 194.792969 156.332031 203.503906 173.9375 209.730469 176.78125 " fill-opacity="1" fill-rule="nonzero"/></g><g fill="#000000" fill-opacity="1"><g transform="translate(89.35427, 255.223709)"><g><path d="M 4.828125 0.28125 C 3.921875 0.28125 3.21875 0.0351562 2.71875 -0.453125 C 2.226562 -0.953125 1.984375 -1.671875 1.984375 -2.609375 L 1.984375 -18.96875 C 1.984375 -19.894531 2.226562 -20.601562 2.71875 -21.09375 C 3.21875 -21.59375 3.929688 -21.84375 4.859375 -21.84375 L 12.484375 -21.84375 C 14.960938 -21.84375 16.878906 -21.207031 18.234375 -19.9375 C 19.585938 -18.664062 20.265625 -16.914062 20.265625 -14.6875 C 20.265625 -12.457031 19.585938 -10.707031 18.234375 -9.4375 C 16.878906 -8.164062 14.960938 -7.53125 12.484375 -7.53125 L 7.6875 -7.53125 L 7.6875 -2.609375 C 7.6875 -1.671875 7.441406 -0.953125 6.953125 -0.453125 C 6.472656 0.0351562 5.765625 0.28125 4.828125 0.28125 Z M 7.6875 -11.890625 L 11.5 -11.890625 C 13.726562 -11.890625 14.84375 -12.820312 14.84375 -14.6875 C 14.84375 -16.539062 13.726562 -17.46875 11.5 -17.46875 L 7.6875 -17.46875 Z M 7.6875 -11.890625 "/></g></g></g><g fill="#000000" fill-opacity="1"><g transform="translate(111.539469, 255.223709)"><g><path d="M 4.953125 0 C 2.972656 0 1.984375 -0.976562 1.984375 -2.9375 L 1.984375 -18.90625 C 1.984375 -20.863281 2.972656 -21.84375 4.953125 -21.84375 L 15.46875 -21.84375 C 16.945312 -21.84375 17.6875 -21.117188 17.6875 -19.671875 C 17.6875 -18.179688 16.945312 -17.4375 15.46875 -17.4375 L 7.4375 -17.4375 L 7.4375 -13.296875 L 14.78125 -13.296875 C 16.269531 -13.296875 17.015625 -12.5625 17.015625 -11.09375 C 17.015625 -9.625 16.269531 -8.890625 14.78125 -8.890625 L 7.4375 -8.890625 L 7.4375 -4.40625 L 15.46875 -4.40625 C 16.945312 -4.40625 17.6875 -3.671875 17.6875 -2.203125 C 17.6875 -0.734375 16.945312 0 15.46875 0 Z M 4.953125 0 "/></g></g></g><g fill="#000000" fill-opacity="1"><g transform="translate(131.803639, 255.223709)"><g><path d="M 9.984375 0.28125 C 9.066406 0.28125 8.359375 0.0351562 7.859375 -0.453125 C 7.367188 -0.953125 7.125 -1.671875 7.125 -2.609375 L 7.125 -17.203125 L 2.265625 -17.203125 C 0.691406 -17.203125 -0.09375 -17.972656 -0.09375 -19.515625 C -0.09375 -21.066406 0.691406 -21.84375 2.265625 -21.84375 L 17.6875 -21.84375 C 19.257812 -21.84375 20.046875 -21.066406 20.046875 -19.515625 C 20.046875 -17.972656 19.257812 -17.203125 17.6875 -17.203125 L 12.828125 -17.203125 L 12.828125 -2.609375 C 12.828125 -1.671875 12.582031 -0.953125 12.09375 -0.453125 C 11.613281 0.0351562 10.910156 0.28125 9.984375 0.28125 Z M 9.984375 0.28125 "/></g></g></g><g fill="#000000" fill-opacity="1"><g transform="translate(152.997343, 255.223709)"><g/></g></g><g fill="#ff3131" fill-opacity="1"><g transform="translate(163.100359, 255.223709)"><g><path d="M 4.859375 0.28125 C 3.953125 0.28125 3.242188 0.03125 2.734375 -0.46875 C 2.234375 -0.976562 1.984375 -1.710938 1.984375 -2.671875 L 1.984375 -18.90625 C 1.984375 -20.863281 2.972656 -21.84375 4.953125 -21.84375 L 15.28125 -21.84375 C 16.757812 -21.84375 17.5 -21.117188 17.5 -19.671875 C 17.5 -18.179688 16.757812 -17.4375 15.28125 -17.4375 L 7.6875 -17.4375 L 7.6875 -13.046875 L 14.59375 -13.046875 C 16.082031 -13.046875 16.828125 -12.320312 16.828125 -10.875 C 16.828125 -9.40625 16.082031 -8.671875 14.59375 -8.671875 L 7.6875 -8.671875 L 7.6875 -2.671875 C 7.6875 -0.703125 6.742188 0.28125 4.859375 0.28125 Z M 4.859375 0.28125 "/></g></g></g><g fill="#ff3131" fill-opacity="1"><g transform="translate(182.280076, 255.223709)"><g><path d="M 4.828125 0.28125 C 3.921875 0.28125 3.21875 0.0351562 2.71875 -0.453125 C 2.226562 -0.953125 1.984375 -1.671875 1.984375 -2.609375 L 1.984375 -18.96875 C 1.984375 -19.894531 2.226562 -20.601562 2.71875 -21.09375 C 3.21875 -21.59375 3.929688 -21.84375 4.859375 -21.84375 L 12.484375 -21.84375 C 14.960938 -21.84375 16.878906 -21.238281 18.234375 -20.03125 C 19.585938 -18.820312 20.265625 -17.144531 20.265625 -15 C 20.265625 -13.363281 19.851562 -11.992188 19.03125 -10.890625 C 18.21875 -9.785156 17.039062 -9.015625 15.5 -8.578125 C 16.65625 -8.273438 17.582031 -7.484375 18.28125 -6.203125 L 19.828125 -3.40625 C 20.160156 -2.789062 20.3125 -2.203125 20.28125 -1.640625 C 20.25 -1.085938 20.023438 -0.628906 19.609375 -0.265625 C 19.203125 0.0976562 18.59375 0.28125 17.78125 0.28125 C 16.976562 0.28125 16.320312 0.117188 15.8125 -0.203125 C 15.3125 -0.523438 14.863281 -1.046875 14.46875 -1.765625 L 11.65625 -6.9375 C 11.40625 -7.394531 11.085938 -7.710938 10.703125 -7.890625 C 10.316406 -8.066406 9.878906 -8.15625 9.390625 -8.15625 L 7.6875 -8.15625 L 7.6875 -2.609375 C 7.6875 -1.671875 7.441406 -0.953125 6.953125 -0.453125 C 6.472656 0.0351562 5.765625 0.28125 4.828125 0.28125 Z M 7.6875 -12.171875 L 11.46875 -12.171875 C 13.71875 -12.171875 14.84375 -13.0625 14.84375 -14.84375 C 14.84375 -16.59375 13.71875 -17.46875 11.46875 -17.46875 L 7.6875 -17.46875 Z M 7.6875 -12.171875 "/></g></g></g><g fill="#ff3131" fill-opacity="1"><g transform="translate(205.39481, 255.223709)"><g><path d="M 4.828125 0.28125 C 3.921875 0.28125 3.21875 0.0351562 2.71875 -0.453125 C 2.226562 -0.953125 1.984375 -1.679688 1.984375 -2.640625 L 1.984375 -19.203125 C 1.984375 -20.160156 2.226562 -20.882812 2.71875 -21.375 C 3.21875 -21.875 3.921875 -22.125 4.828125 -22.125 C 5.742188 -22.125 6.445312 -21.875 6.9375 -21.375 C 7.4375 -20.882812 7.6875 -20.160156 7.6875 -19.203125 L 7.6875 -2.640625 C 7.6875 -1.679688 7.441406 -0.953125 6.953125 -0.453125 C 6.472656 0.0351562 5.765625 0.28125 4.828125 0.28125 Z M 4.828125 0.28125 "/></g></g></g><g fill="#ff3131" fill-opacity="1"><g transform="translate(216.301707, 255.223709)"><g><path d="M 4.953125 0 C 2.972656 0 1.984375 -0.976562 1.984375 -2.9375 L 1.984375 -18.90625 C 1.984375 -20.863281 2.972656 -21.84375 4.953125 -21.84375 L 15.46875 -21.84375 C 16.945312 -21.84375 17.6875 -21.117188 17.6875 -19.671875 C 17.6875 -18.179688 16.945312 -17.4375 15.46875 -17.4375 L 7.4375 -17.4375 L 7.4375 -13.296875 L 14.78125 -13.296875 C 16.269531 -13.296875 17.015625 -12.5625 17.015625 -11.09375 C 17.015625 -9.625 16.269531 -8.890625 14.78125 -8.890625 L 7.4375 -8.890625 L 7.4375 -4.40625 L 15.46875 -4.40625 C 16.945312 -4.40625 17.6875 -3.671875 17.6875 -2.203125 C 17.6875 -0.734375 16.945312 0 15.46875 0 Z M 4.953125 0 "/></g></g></g><g fill="#ff3131" fill-opacity="1"><g transform="translate(236.565879, 255.223709)"><g><path d="M 4.640625 0.28125 C 2.867188 0.28125 1.984375 -0.617188 1.984375 -2.421875 L 1.984375 -19.296875 C 1.984375 -20.210938 2.207031 -20.910156 2.65625 -21.390625 C 3.113281 -21.878906 3.71875 -22.125 4.46875 -22.125 C 5.125 -22.125 5.628906 -22 5.984375 -21.75 C 6.347656 -21.5 6.769531 -21.085938 7.25 -20.515625 L 16.203125 -9.328125 L 16.203125 -19.453125 C 16.203125 -21.234375 17.082031 -22.125 18.84375 -22.125 C 19.707031 -22.125 20.359375 -21.890625 20.796875 -21.421875 C 21.242188 -20.960938 21.46875 -20.304688 21.46875 -19.453125 L 21.46875 -2.296875 C 21.46875 -1.503906 21.257812 -0.875 20.84375 -0.40625 C 20.4375 0.0507812 19.878906 0.28125 19.171875 0.28125 C 18.472656 0.28125 17.921875 0.15625 17.515625 -0.09375 C 17.117188 -0.34375 16.691406 -0.753906 16.234375 -1.328125 L 7.28125 -12.515625 L 7.28125 -2.421875 C 7.28125 -0.617188 6.398438 0.28125 4.640625 0.28125 Z M 4.640625 0.28125 "/></g></g></g><g fill="#ff3131" fill-opacity="1"><g transform="translate(261.291793, 255.223709)"><g><path d="M 4.953125 0 C 2.972656 0 1.984375 -0.976562 1.984375 -2.9375 L 1.984375 -18.90625 C 1.984375 -20.863281 2.972656 -21.84375 4.953125 -21.84375 L 11.03125 -21.84375 C 14.8125 -21.84375 17.742188 -20.890625 19.828125 -18.984375 C 21.910156 -17.085938 22.953125 -14.40625 22.953125 -10.9375 C 22.953125 -7.46875 21.910156 -4.773438 19.828125 -2.859375 C 17.742188 -0.953125 14.8125 0 11.03125 0 Z M 7.6875 -4.609375 L 10.65625 -4.609375 C 12.820312 -4.609375 14.425781 -5.128906 15.46875 -6.171875 C 16.519531 -7.222656 17.046875 -8.8125 17.046875 -10.9375 C 17.046875 -13.0625 16.515625 -14.640625 15.453125 -15.671875 C 14.398438 -16.710938 12.800781 -17.234375 10.65625 -17.234375 L 7.6875 -17.234375 Z M 7.6875 -4.609375 "/></g></g></g></svg>